<?xml version="1.0" standalone="no"?>
<!DOCTYPE svg PUBLIC "-//W3C//DTD SVG 20010904//EN"
 "http://www.w3.org/TR/2001/REC-SVG-20010904/DTD/svg10.dtd">
<svg version="1.0" xmlns="http://www.w3.org/2000/svg"
 width="708.000000pt" height="708.000000pt" viewBox="0 0 708.000000 708.000000"
 preserveAspectRatio="xMidYMid meet">
<metadata>
Created by potrace 1.14, written by Peter Selinger 2001-2017
</metadata>
<g transform="translate(0.000000,708.000000) scale(0.100000,-0.100000)"
fill="#000000" stroke="none">
<path d="M3190 6999 c-495 -43 -1056 -230 -1470 -489 -41 -26 -112 -70 -158
-99 -194 -121 -360 -260 -577 -482 -175 -180 -283 -304 -360 -417 -290 -426
-440 -776 -544 -1267 -57 -270 -64 -344 -65 -680 -1 -275 2 -328 22 -465 53
-356 154 -681 312 -1005 109 -223 218 -409 295 -503 8 -10 41 -55 75 -100 34
-46 97 -121 140 -166 44 -46 78 -86 75 -89 -3 -4 -3 -6 -1 -4 3 1 74 -65 158
-148 159 -156 295 -275 383 -335 133 -90 178 -120 181 -117 3 3 5 1207 5 2535
l-1 832 -480 0 -480 0 0 290 0 290 1560 0 1560 0 0 -290 0 -290 -785 0 -785 0
0 -1844 0 -1844 53 -18 c28 -9 61 -21 72 -27 11 -6 25 -12 30 -13 11 -2 211
-63 235 -72 8 -3 23 -7 32 -8 9 -2 66 -15 125 -30 59 -14 191 -38 293 -54 178
-27 197 -28 500 -25 268 2 334 5 445 24 72 12 157 26 190 31 73 12 80 14 130
28 22 6 54 14 70 18 32 8 32 8 55 16 43 16 268 89 286 93 34 8 91 33 214 95
64 32 127 60 140 62 14 1 30 8 35 14 6 7 30 23 55 37 83 45 198 115 249 151
28 20 75 53 104 73 157 110 271 208 447 383 323 321 519 596 721 1010 158 322
285 736 314 1022 3 29 8 76 11 103 10 75 11 106 12 280 2 243 -13 432 -48 605
-5 25 -14 77 -21 115 -25 143 -103 399 -172 560 -14 33 -36 85 -49 115 -13 30
-45 94 -71 142 -26 47 -47 89 -47 93 0 13 -160 264 -238 375 -225 316 -603
682 -917 885 -203 131 -193 125 -365 219 -133 73 -391 183 -540 230 -234 74
-529 137 -735 156 -127 12 -536 11 -675 -1z m3420 -2424 c0 -3 -21 -54 -46
-113 -26 -59 -63 -152 -84 -207 -21 -55 -70 -179 -109 -275 -40 -96 -90 -224
-113 -285 -22 -60 -51 -130 -63 -155 -23 -46 -135 -324 -135 -335 0 -4 -16
-43 -36 -88 -20 -45 -74 -174 -119 -287 -46 -113 -100 -245 -120 -295 -20 -49
-68 -169 -107 -265 -132 -327 -201 -480 -235 -520 -19 -22 -62 -53 -100 -72
-133 -65 -268 -44 -368 57 -40 39 -62 77 -107 175 -30 69 -70 166 -87 215 -18
50 -54 140 -81 200 -49 111 -213 505 -224 538 -9 28 -22 20 -41 -25 -10 -24
-29 -66 -42 -95 -12 -28 -23 -54 -23 -57 0 -6 -171 -426 -210 -516 -10 -25
-40 -99 -66 -165 -26 -66 -59 -145 -75 -175 -33 -65 -109 -142 -163 -164 -123
-51 -264 -20 -353 77 -50 54 -56 65 -128 242 -31 77 -65 158 -75 180 -25 56
-139 328 -222 530 -66 160 -91 220 -216 520 -27 66 -64 150 -81 188 -37 81
-37 84 -8 93 12 4 24 10 27 13 3 4 79 42 170 85 91 44 187 89 214 102 28 13
56 24 63 24 16 0 46 -59 84 -168 17 -48 60 -157 96 -242 36 -85 74 -179 85
-210 12 -30 46 -113 78 -185 31 -71 76 -178 99 -237 24 -60 46 -108 50 -108 4
0 29 55 56 123 61 155 98 245 135 327 16 36 79 190 140 344 61 153 122 302
136 332 44 94 135 152 249 162 53 4 71 0 124 -23 93 -42 141 -103 195 -247 12
-35 79 -202 149 -373 69 -170 140 -346 157 -390 18 -44 47 -116 65 -160 17
-44 36 -79 41 -79 5 1 24 42 42 90 19 49 37 93 42 99 5 6 26 55 48 110 62 158
188 465 212 520 12 28 37 91 55 142 19 51 52 134 74 185 22 51 61 147 86 213
26 66 60 154 77 195 17 41 48 120 70 175 22 55 51 123 64 152 13 28 24 54 24
57 0 2 4 16 10 30 l10 26 305 0 c168 0 305 -2 305 -5z"/>
</g>
</svg>
